<svg xmlns="http://www.w3.org/2000/svg" width="781545.94" height="158776.505" viewBox="0 0 732.69931 148.85297"><g fill="#fff"><path d="M158.247 9.275c14.268-15.448-17.602-11.13-49.53 23.438-13.01 14.08-12.046 29.52-18.632 36.655-1.548 1.33-3.248 2.797-5.08 4.383C73.26 62.965 63.898 54.534 59.803 50.856c-.068-.693-.07-1.44.04-2.26 0 0 2.94-9.843-9.332-20.09L16.326 0 13.42 2.906l33.484 33.486c.834.837.832 2.178-.005 3.014-.83.828-2.176.832-3.01 0l.004.002L10.406 5.92l-4.488 4.488 33.484 33.485c.833.837.83 2.18-.004 3.013-.832.832-2.176.834-3.008.004L2.903 13.422 1.73 14.597 0 16.327l28.506 34.18C38.75 62.78 48.592 59.84 48.592 59.84c.814-.11 1.558-.108 2.248-.042 3.598 4.006 11.745 13.053 22.2 24.443-14.682 13.035-32.78 29.754-47.1 45.255-4.665 5.047-5.55 13.018-1.24 17.003 4.31 3.985 11.9 2.773 16.85-2.582 14.052-15.215 28.985-34.15 40.72-49.66 14.245 15.378 31.03 33.156 46.15 48.276 5.98 5.98 14.09 7.774 17.983 3.88 3.9-3.9 1.757-12.353-3.882-17.993-15.707-15.71-34.292-33.22-50.07-47.81l.378-.51c35.198-38.11 44.14-47.79 65.42-70.825z"/><g style="line-height:125%" font-size="86.975" font-family="Lora" letter-spacing="0" word-spacing="0" font-weight="bold"><path d="M242.02 46.76l-17.796 47.65h-8.11l-11.68-28.624q-.51-1.19-1.316-3.227-.765-2.082-1.614-4.673-.85-2.59-1.7-5.563-.806-3.015-1.485-6.158h-.086q.127 4.884.212 9.173.085 4.29.043 8.238l-.13 15.713q0 1.19-.04 2.337 0 1.147-.086 2.21-.043 1.018-.128 1.867-.042.85-.127 1.402l6.582-.255v6.71H184.73V87.83q1.443-.085 2.59-.298 1.146-.212 1.91-.934.807-.722 1.232-2.208.425-1.487.467-4.12l.51-33.338q0-1.19.04-2.335.044-1.147.086-2.166.043-1.063.085-1.912.086-.85.17-1.402l-6.582.255v-6.71h19.24l13.164 33.68q.594 1.527 1.274 3.438.722 1.912 1.4 3.823.68 1.912 1.233 3.653.594 1.7.933 2.803h.085q1.104-3.015 2.04-5.818.975-2.846 2.08-5.65l13.42-35.927h20.087v5.734q-1.486.085-2.675.298-1.147.212-1.996.934-.807.722-1.232 2.208-.382 1.487-.297 4.12l1.316 33.337q.044 1.19 0 2.337 0 1.147-.04 2.21-.044 1.018-.13 1.867-.083.85-.168 1.402l6.54-.255v6.71h-24.165V87.83q1.444-.085 2.633-.298 1.19-.212 1.996-.934.85-.722 1.232-2.208.424-1.487.34-4.12l-.722-18.43q-.043-.766-.128-2.464-.085-1.74-.212-3.865-.085-2.124-.212-4.418-.085-2.335-.17-4.33h-.085zM288.055 54.787q-1.912 0-3.44.722-1.487.72-2.59 1.995-1.105 1.274-1.827 3.1-.68 1.784-.977 3.95h16.012q-.085-2.676-.637-4.544-.552-1.868-1.53-3.015-.933-1.19-2.208-1.698-1.274-.51-2.802-.51zM307.25 70.16l-28.58.51q0 3.568.636 6.625.68 3.016 2.123 5.224 1.443 2.165 3.78 3.44 2.335 1.23 5.732 1.23 1.317 0 2.93-.34 1.615-.34 3.27-1.103 1.7-.765 3.398-1.996 1.7-1.273 3.185-3.1l3.907 3.695q-2.335 3.355-4.968 5.436-2.633 2.082-5.31 3.23-2.632 1.145-5.222 1.528-2.55.424-4.757.424-4.8 0-8.748-1.614-3.95-1.613-6.795-4.63-2.846-3.014-4.417-7.26-1.53-4.248-1.53-9.556 0-4.587 1.53-8.75 1.57-4.203 4.417-7.43 2.845-3.228 6.837-5.14 4.034-1.91 8.96-1.91 2.42 0 4.8.424 2.42.425 4.585 1.444 2.21.977 4.077 2.59 1.91 1.615 3.27 3.993t2.124 5.606q.807 3.226.764 7.43zM336.893 73.558q-2.463.255-4.63.892-2.165.637-3.778 1.7-1.572 1.018-2.506 2.462-.893 1.444-.893 3.312.043 1.232.467 2.08.425.85 1.062 1.403.68.552 1.53.807.89.255 1.825.255 2.04 0 3.78-.85 1.742-.85 3.1-2.337l.043-9.725zm-22.296-13.42q0-2.548 1.402-4.67 1.443-2.125 3.906-3.61 2.506-1.53 5.86-2.337 3.356-.848 7.178-.848t6.795.976q3.014.977 5.052 3.016 2.08 2.038 3.143 5.18 1.104 3.144 1.104 7.475 0 2.208-.043 3.906v3.228q0 1.53-.043 3.228v3.907q0 .636-.042 1.528 0 .89-.043 1.91 0 1.02-.086 2.124-.042 1.062-.127 2.04l5.606-.256v6.625h-16.436q-.17-1.23-.254-2.038-.043-.85-.085-1.953h-.085q-2.973 2.972-6.2 4.16-3.228 1.232-6.668 1.232-2.803 0-5.01-.892-2.21-.85-3.74-2.42-1.485-1.572-2.292-3.653-.807-2.123-.807-4.63 0-2.76.977-4.967.977-2.21 2.676-3.95 1.74-1.74 4.075-3.015 2.336-1.274 5.012-2.124 2.718-.848 5.648-1.315 2.93-.467 5.86-.595v-4.544q0-1.74-.297-3.185-.297-1.485-1.02-2.547-.72-1.062-1.91-1.656-1.19-.595-2.973-.552-1.783.084-3.312.72-1.53.64-2.633 1.785.68.722.85 1.656.21.935.21 1.572 0 .934-.338 1.91-.34.935-1.062 1.742-.722.764-1.826 1.274t-2.633.51q-1.273-.043-2.292-.51-1.02-.51-1.7-1.274-.68-.807-1.06-1.87-.34-1.06-.34-2.292zM375.455 79.59q0 .636-.043 1.528 0 .89-.042 1.91-.043 1.02-.128 2.124-.042 1.062-.127 2.04l5.648-.256v6.625h-22.805v-5.647q1.826 0 2.845-.553 1.062-.552 1.57-1.57.51-1.02.638-2.422.13-1.444.13-3.185V44.425q0-1.572.04-3.61.086-2.038.298-3.992l-6.115.255v-6.583q3.015 0 5.31-.255 2.334-.254 3.948-.637 1.657-.382 2.634-.807 1.02-.467 1.487-.89h4.715v51.683zM435.335 71.52q-1.02.042-1.868.085h-3.016q-.678 0-1.443-.043v7.687q0 2.377-.085 4.586-.084 2.165-.254 3.27l7.39-.255v6.71h-25.822V87.83q1.444-.085 2.59-.255 1.19-.213 1.954-.935.807-.764 1.232-2.25.425-1.487.425-4.12V46.93v-2.335q.042-1.147.085-2.166.042-1.063.085-1.912.084-.85.17-1.402l-6.54.255v-6.71l24.758-.17q5.65-.04 10.235 1.063 4.63 1.104 7.9 3.44 3.27 2.293 5.053 5.903 1.784 3.61 1.784 8.664.042 3.652-1.444 7.134-1.487 3.44-4.544 6.243-3.016 2.803-7.646 4.587-4.63 1.783-11 1.996zm-2.42-6.2q3.567 0 6.157-.893 2.59-.934 4.247-2.718 1.655-1.784 2.42-4.375.807-2.59.807-5.903 0-2.888-.552-4.97-.552-2.08-1.487-3.48-.934-1.445-2.166-2.294-1.19-.892-2.505-1.317-1.274-.466-2.59-.593-1.275-.17-2.38-.17-1.4 0-2.505.212-1.06.21-1.826.933-.722.722-1.146 2.08-.383 1.36-.383 3.654v19.577q.935.085 1.91.17.978.085 1.997.085zM480.607 79.59q0 .636-.043 1.528 0 .89-.042 1.91-.043 1.02-.128 2.124-.042 1.062-.127 2.04l5.648-.256v6.625H463.11v-5.647q1.826 0 2.845-.553 1.062-.552 1.57-1.57.51-1.02.638-2.422.128-1.444.128-3.185V44.425q0-1.572.043-3.61.085-2.038.297-3.992l-6.115.255v-6.583q3.015 0 5.31-.255 2.334-.254 3.948-.637 1.656-.382 2.633-.807 1.02-.467 1.487-.89h4.714v51.683zM514.92 73.558q-2.462.255-4.628.892t-3.78 1.7q-1.57 1.018-2.505 2.462-.892 1.444-.892 3.312.042 1.232.467 2.08.425.85 1.062 1.403.68.552 1.53.807.89.255 1.825.255 2.037 0 3.778-.85 1.742-.85 3.1-2.337l.043-9.725zm-22.295-13.42q0-2.548 1.402-4.67 1.443-2.125 3.907-3.61 2.505-1.53 5.86-2.337 3.355-.848 7.177-.848 3.824 0 6.796.976 3.016.977 5.054 3.016 2.08 2.038 3.143 5.18 1.104 3.144 1.104 7.475 0 2.208-.042 3.906v3.228q0 1.53-.043 3.228v3.907q0 .636-.042 1.528 0 .89-.043 1.91 0 1.02-.085 2.124-.042 1.062-.127 2.04l5.606-.256v6.625h-16.435q-.17-1.23-.255-2.038-.042-.85-.084-1.953h-.085q-2.972 2.972-6.2 4.16-3.227 1.232-6.667 1.232-2.803 0-5.012-.892-2.207-.85-3.736-2.42-1.486-1.572-2.293-3.653-.806-2.123-.806-4.63 0-2.76.977-4.967.978-2.21 2.676-3.95 1.742-1.74 4.077-3.015 2.336-1.274 5.012-2.124 2.718-.848 5.648-1.315 2.93-.467 5.86-.595v-4.544q0-1.74-.297-3.185-.297-1.485-1.02-2.547-.72-1.062-1.91-1.656-1.19-.595-2.973-.552-1.784.084-3.312.72-1.528.64-2.632 1.785.68.722.85 1.656.21.935.21 1.572 0 .934-.34 1.91-.338.935-1.06 1.742-.722.764-1.826 1.274-1.105.51-2.633.51-1.275-.043-2.295-.51-1.02-.51-1.698-1.274-.68-.807-1.062-1.87-.34-1.06-.34-2.292zM582.19 79.59q0 .636-.04 1.528 0 .89-.044 1.91-.042 1.02-.127 2.124-.044 1.062-.13 2.04l5.65-.256v6.625h-22.806v-5.647q1.826 0 2.845-.553 1.06-.552 1.57-1.57.51-1.02.638-2.422.127-1.444.127-3.185l-.042-12.4q-.043-5.734-1.742-8.41-1.697-2.675-5.307-2.675-2.25 0-4.374.935-2.082.934-3.57 2.25V79.59q0 .636-.04 1.528 0 .89-.044 1.91-.042 1.02-.127 2.124-.044 1.062-.13 2.04l5.65-.256v6.625h-22.806v-5.647q1.826 0 2.846-.553 1.06-.552 1.57-1.57.51-1.02.638-2.422.127-1.444.127-3.185v-14.65q0-1.573.043-3.484.085-1.954.297-3.908l-6.115.255v-6.583q3.015 0 5.308-.254 2.336-.255 3.95-.638 1.656-.382 2.633-.806 1.02-.468 1.487-.892h4.29l.382 4.29h.126q1.274-.978 2.888-1.87 1.656-.89 3.355-1.528 1.74-.68 3.354-1.062 1.656-.382 2.973-.382 3.992 0 6.752 1.146 2.802 1.104 4.543 3.44 1.784 2.336 2.59 5.988.808 3.653.808 8.664v11.68zM637.57 79.59q0 .636-.043 1.528 0 .89-.042 1.91-.043 1.02-.127 2.124-.043 1.062-.128 2.04l5.648-.256v6.625h-22.805v-5.647q1.826 0 2.845-.553 1.062-.552 1.572-1.57.51-1.02.637-2.422.127-1.444.127-3.185l-.042-12.4q-.043-5.734-1.742-8.41-1.698-2.675-5.308-2.675-2.25 0-4.374.935-2.08.934-3.568 2.25V79.59q0 .636-.042 1.528 0 .89-.043 1.91-.042 1.02-.127 2.124-.043 1.062-.128 2.04l5.65-.256v6.625h-22.807v-5.647q1.826 0 2.845-.553 1.062-.552 1.572-1.57.51-1.02.637-2.422.127-1.444.127-3.185v-14.65q0-1.573.043-3.484.085-1.954.297-3.908l-6.115.255v-6.583q3.014 0 5.307-.254 2.336-.255 3.95-.638 1.656-.382 2.633-.806 1.02-.468 1.486-.892h4.29l.382 4.29h.127q1.274-.978 2.888-1.87 1.656-.89 3.355-1.528 1.74-.68 3.355-1.062 1.656-.382 2.973-.382 3.992 0 6.752 1.146 2.803 1.104 4.544 3.44 1.784 2.336 2.59 5.988.808 3.653.808 8.664v11.68zM669.42 54.787q-1.91 0-3.44.722-1.485.72-2.59 1.995-1.103 1.274-1.825 3.1-.68 1.784-.977 3.95h16.01q-.084-2.676-.637-4.544-.55-1.868-1.527-3.015-.935-1.19-2.21-1.698-1.273-.51-2.802-.51zm19.197 15.374l-28.58.51q0 3.568.636 6.625.68 3.016 2.123 5.224 1.444 2.165 3.78 3.44 2.336 1.23 5.733 1.23 1.316 0 2.93-.34 1.613-.34 3.27-1.103 1.698-.765 3.397-1.996 1.7-1.273 3.185-3.1L689 84.345q-2.337 3.355-4.97 5.436-2.633 2.082-5.308 3.23-2.633 1.145-5.224 1.528-2.548.424-4.756.424-4.8 0-8.75-1.614-3.948-1.613-6.794-4.63-2.845-3.014-4.416-7.26-1.53-4.248-1.53-9.556 0-4.587 1.53-8.75 1.57-4.203 4.416-7.43 2.846-3.228 6.838-5.14 4.034-1.91 8.96-1.91 2.42 0 4.8.424 2.42.425 4.586 1.444 2.21.977 4.077 2.59 1.91 1.615 3.27 3.993 1.358 2.378 2.123 5.606.807 3.226.764 7.43zM725.097 48.672q1.53 0 2.888.424 1.402.425 2.42 1.317 1.063.85 1.657 2.208.637 1.36.637 3.27 0 1.02-.34 2.125-.34 1.06-1.062 1.953-.722.892-1.91 1.487-1.148.552-2.804.552-.892 0-1.826-.213-.935-.254-1.742-.806-.764-.595-1.36-1.572-.55-.977-.678-2.505-1.317 0-2.676.892-1.316.85-2.505 2.166-1.147 1.274-2.04 2.76-.89 1.487-1.273 2.676V79.59q0 .636-.042 1.528 0 .89-.043 1.91t-.128 2.124q-.043 1.062-.128 2.04l5.65-.256v6.625h-22.807v-5.647q1.826 0 2.846-.553 1.06-.552 1.57-1.57.51-1.02.638-2.422.128-1.444.128-3.185v-14.65q0-1.573.043-3.484.086-1.954.298-3.908l-6.115.255v-6.583q3.015 0 5.308-.254 2.337-.255 3.95-.638 1.657-.382 2.634-.806 1.02-.468 1.486-.892h4.29l.382 7.474h.127q.85-1.146 2.038-2.548 1.23-1.4 2.803-2.59 1.614-1.232 3.525-2.04 1.912-.848 4.162-.848z" style="line-height:125%;-inkscape-font-specification:'Lora, Bold';text-align:start"/></g><path d="M184.07 108.47H728.75v8.7H184.07z"/></g></svg>