<svg xmlns="http://www.w3.org/2000/svg" width="781545.94" height="158776.505" viewBox="0 0 732.69931 148.85297"><g fill="#fff"><path d="M158.247 9.275c14.268-15.448-17.602-11.13-49.53 23.438-13.01 14.08-12.046 29.52-18.632 36.655-1.548 1.33-3.248 2.797-5.08 4.383C73.26 62.965 63.898 54.534 59.803 50.856c-.068-.693-.07-1.44.04-2.26 0 0 2.94-9.843-9.332-20.09L16.326 0 13.42 2.906l33.484 33.486c.834.837.832 2.178-.005 3.014-.83.828-2.176.832-3.01 0l.004.002L10.406 5.92l-4.488 4.488 33.484 33.485c.833.837.83 2.18-.004 3.013-.832.832-2.176.834-3.008.004L2.903 13.422 1.73 14.597 0 16.327l28.506 34.18C38.75 62.78 48.592 59.84 48.592 59.84c.814-.11 1.558-.108 2.248-.042 3.598 4.006 11.745 13.053 22.2 24.443-14.682 13.035-32.78 29.754-47.1 45.255-4.665 5.047-5.55 13.018-1.24 17.003 4.31 3.985 11.9 2.773 16.85-2.582 14.052-15.215 28.985-34.15 40.72-49.66 14.245 15.378 31.03 33.156 46.15 48.276 5.98 5.98 14.09 7.774 17.983 3.88 3.9-3.9 1.757-12.353-3.882-17.993-15.707-15.71-34.292-33.22-50.07-47.81l.378-.51c35.198-38.11 44.14-47.79 65.42-70.825zM183.07 109.708h460.524v6.576H183.07z"/><g style="line-height:125%" font-size="82.5" font-family="Roboto" letter-spacing="1" word-spacing="0"><path d="M193.575 38.46l19.175 47.857 19.174-47.856h10.03v58.653h-7.733v-22.84l.726-24.654-19.256 47.493h-5.92L190.553 49.74l.765 24.532v22.84h-7.735v-58.65h9.99zM273.53 97.92q-8.862 0-14.422-5.802-5.56-5.84-5.56-15.59v-1.37q0-6.485 2.46-11.56 2.496-5.117 6.927-7.977 4.472-2.9 9.668-2.9 8.5 0 13.213 5.6 4.713 5.6 4.713 16.033v3.102H261q.16 6.445 3.746 10.433 3.626 3.948 9.185 3.948 3.947 0 6.687-1.612 2.74-1.61 4.793-4.27l4.552 3.545q-5.478 8.42-16.435 8.42zm-.927-39.076q-4.51 0-7.573 3.303-3.06 3.263-3.787 9.185h21.834v-.564q-.322-5.68-3.062-8.782-2.74-3.142-7.412-3.142zM327.02 97.113q-.646-1.29-1.048-4.592-5.197 5.4-12.408 5.4-6.445 0-10.594-3.627-4.11-3.666-4.11-9.265 0-6.808 5.157-10.554 5.197-3.787 14.583-3.787h7.25v-3.424q0-3.907-2.336-6.204-2.336-2.337-6.888-2.337-3.988 0-6.687 2.014-2.7 2.014-2.7 4.874h-7.493q0-3.262 2.296-6.283 2.337-3.06 6.284-4.834 3.99-1.772 8.742-1.772 7.532 0 11.802 3.787 4.27 3.747 4.43 10.353v20.06q0 6.003 1.532 9.548v.645h-7.815zm-12.368-5.68q3.505 0 6.647-1.813 3.14-1.813 4.55-4.713v-8.943h-5.84q-13.697 0-13.697 8.017 0 3.505 2.337 5.48 2.336 1.973 6.002 1.973zM354.002 97.113h-7.453V35.238H354v61.875zM375.788 74.15v22.963h-7.735V38.46h21.632q9.628 0 15.066 4.915 5.48 4.915 5.48 13.012 0 8.54-5.358 13.172-5.317 4.59-15.267 4.59h-13.817zm0-6.323h13.897q6.204 0 9.507-2.9 3.303-2.94 3.303-8.46 0-5.237-3.303-8.38-3.303-3.14-9.063-3.262h-14.342v23.002zM428.028 97.113h-7.452V35.238h7.452v61.875zM467.82 97.113q-.644-1.29-1.047-4.592-5.196 5.4-12.407 5.4-6.445 0-10.594-3.627-4.11-3.666-4.11-9.265 0-6.808 5.157-10.554 5.195-3.787 14.58-3.787h7.252v-3.424q0-3.907-2.336-6.204-2.336-2.337-6.888-2.337-3.988 0-6.687 2.014-2.698 2.014-2.698 4.874h-7.493q0-3.262 2.295-6.283 2.336-3.06 6.284-4.834 3.987-1.772 8.74-1.772 7.534 0 11.804 3.787 4.27 3.747 4.43 10.353v20.06q0 6.003 1.532 9.548v.645h-7.815zm-12.366-5.68q3.504 0 6.646-1.813 3.143-1.813 4.552-4.713v-8.943h-5.84q-13.697 0-13.697 8.017 0 3.505 2.337 5.48 2.336 1.973 6.002 1.973zM493.756 53.526l.242 5.48q4.995-6.285 13.05-6.285 13.82 0 13.94 15.59v28.803h-7.453V68.27q-.04-4.713-2.175-6.97-2.095-2.255-6.566-2.255-3.626 0-6.365 1.934-2.74 1.932-4.27 5.075v31.058h-7.454V53.526h7.05zM540.357 53.526l.24 5.48q4.996-6.285 13.053-6.285 13.817 0 13.938 15.59v28.803h-7.452V68.27q-.04-4.713-2.176-6.97-2.094-2.255-6.566-2.255-3.625 0-6.365 1.934-2.74 1.932-4.27 5.075v31.058h-7.453V53.526h7.05zM597.995 97.92q-8.863 0-14.422-5.802-5.56-5.84-5.56-15.59v-1.37q0-6.485 2.46-11.56 2.496-5.117 6.927-7.977 4.472-2.9 9.668-2.9 8.5 0 13.213 5.6 4.714 5.6 4.714 16.033v3.102h-29.527q.16 6.445 3.746 10.433 3.625 3.948 9.185 3.948 3.947 0 6.687-1.612 2.74-1.61 4.793-4.27l4.552 3.545q-5.478 8.42-16.435 8.42zm-.927-39.076q-4.512 0-7.573 3.303-3.062 3.263-3.787 9.185h21.834v-.564q-.322-5.68-3.062-8.782-2.74-3.142-7.412-3.142zM645.643 60.213q-1.692-.282-3.666-.282-7.332 0-9.95 6.245v30.938h-7.452V53.526h7.25l.12 5.036q3.667-5.84 10.394-5.84 2.175 0 3.303.563v6.928z" style="-inkscape-font-specification:Roboto"/></g></g></svg>