<?xml version="1.0" encoding="UTF-8" standalone="no"?>
<!-- Created with Inkscape (http://www.inkscape.org/) -->

<svg
   xmlns:dc="http://purl.org/dc/elements/1.1/"
   xmlns:cc="http://creativecommons.org/ns#"
   xmlns:rdf="http://www.w3.org/1999/02/22-rdf-syntax-ns#"
   xmlns:svg="http://www.w3.org/2000/svg"
   xmlns="http://www.w3.org/2000/svg"
   xmlns:sodipodi="http://sodipodi.sourceforge.net/DTD/sodipodi-0.dtd"
   xmlns:inkscape="http://www.inkscape.org/namespaces/inkscape"
   width="206.78403mm"
   height="42.009617mm"
   viewBox="0 0 732.69931 148.85297"
   id="svg2"
   version="1.1"
   inkscape:version="0.91 r13725"
   sodipodi:docname="logo.svg">
  <defs
     id="defs4">
    <inkscape:perspective
       sodipodi:type="inkscape:persp3d"
       inkscape:vp_x="0 : 526.1811 : 1"
       inkscape:vp_y="0 : 1000 : 0"
       inkscape:vp_z="744.09451 : 526.1811 : 1"
       inkscape:persp3d-origin="372.04725 : 350.7874 : 1"
       id="perspective3400" />
  </defs>
  <sodipodi:namedview
     id="base"
     pagecolor="#ffffff"
     bordercolor="#666666"
     borderopacity="1.0"
     inkscape:pageopacity="0.0"
     inkscape:pageshadow="2"
     inkscape:zoom="1"
     inkscape:cx="250.40013"
     inkscape:cy="101.59897"
     inkscape:document-units="px"
     inkscape:current-layer="layer1"
     showgrid="false"
     inkscape:window-width="1440"
     inkscape:window-height="851"
     inkscape:window-x="0"
     inkscape:window-y="0"
     inkscape:window-maximized="1"
     fit-margin-top="0"
     fit-margin-left="0"
     fit-margin-right="0"
     fit-margin-bottom="0">
    <inkscape:grid
       type="xygrid"
       id="grid3441"
       originx="-1.9313287"
       originy="-896.15654" />
  </sodipodi:namedview>
  <metadata
     id="metadata7">
    <rdf:RDF>
      <cc:Work
         rdf:about="">
        <dc:format>image/svg+xml</dc:format>
        <dc:type
           rdf:resource="http://purl.org/dc/dcmitype/StillImage" />
        <dc:title />
      </cc:Work>
    </rdf:RDF>
  </metadata>
  <g
     inkscape:label="Layer 1"
     inkscape:groupmode="layer"
     id="layer1"
     transform="translate(-1.9313286,-7.3527143)"
     style="opacity:1">
    <g
       id="g3388"
       style="fill:#ffffff"
       transform="matrix(0.49379377,0,0,0.49379377,2.4305541,7.3527143)">
      <path
         id="path3390"
         d="m 319.461,18.783 c 28.894,-31.284 -35.646,-22.541 -100.306,47.466 -26.347,28.511 -24.394,59.782 -37.731,74.23 -3.135,2.695 -6.579,5.665 -10.287,8.877 -23.787,-21.845 -42.747,-38.919 -51.04,-46.367 -0.138,-1.404 -0.14,-2.919 0.082,-4.58 0,0 5.951,-19.931 -18.901,-40.683 L 32.051,0 26.165,5.886 93.977,73.698 c 1.688,1.695 1.684,4.412 -0.012,6.105 -1.678,1.677 -4.404,1.685 -6.09,0 l 0.005,0.003 -67.818,-67.817 -9.089,9.089 67.81,67.812 c 1.688,1.694 1.68,4.415 -0.007,6.101 -1.685,1.685 -4.407,1.69 -6.093,0.008 L 4.868,27.182 2.49,29.561 l -3.501,3.501 57.729,69.222 c 20.745,24.855 40.676,18.898 40.676,18.898 1.648,-0.218 3.156,-0.217 4.553,-0.083 7.286,8.112 23.785,26.434 44.956,49.501 -29.732,26.395 -66.385,60.254 -95.383,91.645 -9.446,10.221 -11.238,26.363 -2.512,34.434 8.729,8.07 24.104,5.615 34.123,-5.23 28.459,-30.811 58.702,-69.16 82.466,-100.57 28.849,31.144 62.839,67.147 93.458,97.768 12.112,12.113 28.534,15.744 36.42,7.857 7.896,-7.899 3.559,-25.017 -7.861,-36.438 -31.812,-31.812 -69.449,-67.272 -101.402,-96.817 0.255,-0.345 0.515,-0.695 0.766,-1.037 71.281,-77.178 89.388,-96.777 132.483,-143.429 z"
         inkscape:connector-curvature="0"
         style="fill:#ffffff" />
    </g>
    <rect
       id="rect3420"
       width="460.52518"
       height="6.57622"
       x="185"
       y="117.06104"
       style="fill:#ffffff" />
    <g
       style="font-style:normal;font-weight:normal;font-size:40px;line-height:125%;font-family:sans-serif;letter-spacing:0px;word-spacing:0px;fill:#000000;fill-opacity:1;stroke:none;stroke-width:1px;stroke-linecap:butt;stroke-linejoin:miter;stroke-opacity:1"
       id="text3453">
      <path
         d="m 195.50612,45.81324 19.1748,47.856445 19.17481,-47.856445 10.03052,0 0,58.65234 -7.73438,0 0,-22.840572 0.7251,-24.653321 -19.25537,47.493893 -5.92163,0 -19.21509,-47.373043 0.76538,24.532471 0,22.840572 -7.73438,0 0,-58.65234 9.99024,0 z"
         style="font-style:normal;font-variant:normal;font-weight:normal;font-stretch:normal;font-size:82.5px;font-family:Roboto;-inkscape-font-specification:Roboto;letter-spacing:1px;fill:#ffffff"
         id="path3463" />
      <path
         d="m 275.4612,105.27125 q -8.86231,0 -14.42139,-5.800783 -5.55908,-5.841065 -5.55908,-15.5896 l 0,-1.369629 q 0,-6.485596 2.45727,-11.561279 2.49756,-5.115967 6.92871,-7.976074 4.47144,-2.900391 9.66797,-2.900391 8.49976,0 13.21289,5.599365 4.71314,5.599365 4.71314,16.032715 l 0,3.101807 -29.52759,0 q 0.16113,6.445312 3.74634,10.433349 3.62549,3.947754 9.18457,3.947754 3.94775,0 6.68701,-1.611328 2.73926,-1.611328 4.7937,-4.270019 l 4.552,3.544921 q -5.47851,8.419192 -16.43554,8.419192 z m -0.92652,-39.074709 q -4.51172,0 -7.57324,3.303222 -3.06152,3.26294 -3.78662,9.184571 l 21.8335,0 0,-0.563965 q -0.32227,-5.679932 -3.06153,-8.781738 -2.73926,-3.14209 -7.41211,-3.14209 z"
         style="font-style:normal;font-variant:normal;font-weight:normal;font-stretch:normal;font-size:82.5px;font-family:Roboto;-inkscape-font-specification:Roboto;letter-spacing:1px;fill:#ffffff"
         id="path3465" />
      <path
         d="m 328.95021,104.46558 q -0.64453,-1.28906 -1.04736,-4.592281 -5.19654,5.397951 -12.40723,5.397951 -6.44531,0 -10.59448,-3.62549 -4.10889,-3.665772 -4.10889,-9.265137 0,-6.807861 5.15625,-10.554199 5.19653,-3.786621 14.58252,-3.786621 l 7.25098,0 0,-3.424073 q 0,-3.90747 -2.33643,-6.203613 -2.33642,-2.336426 -6.88843,-2.336426 -3.98803,0 -6.68701,2.01416 -2.69897,2.014161 -2.69897,4.874268 l -7.49268,0 q 0,-3.262939 2.29614,-6.28418 2.33643,-3.061523 6.28418,-4.833984 3.98804,-1.772461 8.74146,-1.772461 7.53296,0 11.80298,3.786621 4.27002,3.746338 4.43115,10.352783 l 0,20.061035 q 0,6.002197 1.53076,9.547117 l 0,0.64453 -7.81494,0 z m -12.36694,-5.679928 q 3.50464,0 6.64673,-1.812744 3.14209,-1.812744 4.552,-4.713135 l 0,-8.942871 -5.84107,0 q -13.69629,0 -13.69629,8.016358 0,3.504638 2.33643,5.478515 2.33643,1.973877 6.0022,1.973877 z"
         style="font-style:normal;font-variant:normal;font-weight:normal;font-stretch:normal;font-size:82.5px;font-family:Roboto;-inkscape-font-specification:Roboto;letter-spacing:1px;fill:#ffffff"
         id="path3467" />
      <path
         d="m 355.93288,104.46558 -7.4524,0 0,-61.874996 7.4524,0 0,61.874996 z"
         style="font-style:normal;font-variant:normal;font-weight:normal;font-stretch:normal;font-size:82.5px;font-family:Roboto;-inkscape-font-specification:Roboto;letter-spacing:1px;fill:#ffffff"
         id="path3469" />
      <path
         d="m 377.71901,81.504158 0,22.961422 -7.73438,0 0,-58.65234 21.63208,0 q 9.62769,0 15.06592,4.914551 5.47852,4.914551 5.47852,13.011474 0,8.54004 -5.35767,13.172608 -5.31738,4.592285 -15.26733,4.592285 l -13.81714,0 z m 0,-6.324463 13.8977,0 q 6.20362,0 9.50684,-2.90039 3.30322,-2.940674 3.30322,-8.459473 0,-5.236817 -3.30322,-8.378906 -3.30322,-3.14209 -9.06372,-3.26294 l -14.34082,0 0,23.001709 z"
         style="font-style:normal;font-variant:normal;font-weight:normal;font-stretch:normal;font-size:82.5px;font-family:Roboto;-inkscape-font-specification:Roboto;letter-spacing:1px;fill:#ffffff"
         id="path3471" />
      <path
         d="m 429.95924,104.46558 -7.45239,0 0,-61.874996 7.45239,0 0,61.874996 z"
         style="font-style:normal;font-variant:normal;font-weight:normal;font-stretch:normal;font-size:82.5px;font-family:Roboto;-inkscape-font-specification:Roboto;letter-spacing:1px;fill:#ffffff"
         id="path3473" />
      <path
         d="m 469.75197,104.46558 q -0.64453,-1.28906 -1.04736,-4.592281 -5.19654,5.397951 -12.40723,5.397951 -6.44531,0 -10.59448,-3.62549 -4.10889,-3.665772 -4.10889,-9.265137 0,-6.807861 5.15625,-10.554199 5.19653,-3.786621 14.58252,-3.786621 l 7.25098,0 0,-3.424073 q 0,-3.90747 -2.33643,-6.203613 -2.33643,-2.336426 -6.88843,-2.336426 -3.98804,0 -6.68701,2.01416 -2.69897,2.014161 -2.69897,4.874268 l -7.49268,0 q 0,-3.262939 2.29614,-6.28418 2.33643,-3.061523 6.28418,-4.833984 3.98804,-1.772461 8.74146,-1.772461 7.53296,0 11.80298,3.786621 4.27002,3.746338 4.43115,10.352783 l 0,20.061035 q 0,6.002197 1.53076,9.547117 l 0,0.64453 -7.81494,0 z m -12.36694,-5.679928 q 3.50463,0 6.64672,-1.812744 3.14209,-1.812744 4.55201,-4.713135 l 0,-8.942871 -5.84107,0 q -13.69629,0 -13.69629,8.016358 0,3.504638 2.33643,5.478515 2.33642,1.973877 6.0022,1.973877 z"
         style="font-style:normal;font-variant:normal;font-weight:normal;font-stretch:normal;font-size:82.5px;font-family:Roboto;-inkscape-font-specification:Roboto;letter-spacing:1px;fill:#ffffff"
         id="path3475" />
      <path
         d="m 495.68727,60.879158 0.2417,5.478516 q 4.99512,-6.28418 13.05176,-6.28418 13.81714,0 13.93799,15.5896 l 0,28.802486 -7.4524,0 0,-28.84277 q -0.0403,-4.713134 -2.17529,-6.968994 -2.09473,-2.255859 -6.56616,-2.255859 -3.62549,0 -6.36475,1.933594 -2.73926,1.933593 -4.27002,5.075683 l 0,31.058346 -7.45239,0 0,-43.586422 7.04956,0 z"
         style="font-style:normal;font-variant:normal;font-weight:normal;font-stretch:normal;font-size:82.5px;font-family:Roboto;-inkscape-font-specification:Roboto;letter-spacing:1px;fill:#ffffff"
         id="path3477" />
      <path
         d="m 542.28786,60.879158 0.2417,5.478516 q 4.99511,-6.28418 13.05175,-6.28418 13.81714,0 13.93799,15.5896 l 0,28.802486 -7.45239,0 0,-28.84277 q -0.0403,-4.713134 -2.17529,-6.968994 -2.09473,-2.255859 -6.56617,-2.255859 -3.62548,0 -6.36474,1.933594 -2.73926,1.933593 -4.27002,5.075683 l 0,31.058346 -7.45239,0 0,-43.586422 7.04956,0 z"
         style="font-style:normal;font-variant:normal;font-weight:normal;font-stretch:normal;font-size:82.5px;font-family:Roboto;-inkscape-font-specification:Roboto;letter-spacing:1px;fill:#ffffff"
         id="path3479" />
      <path
         d="m 599.92604,105.27125 q -8.8623,0 -14.42139,-5.800783 -5.55908,-5.841065 -5.55908,-15.5896 l 0,-1.369629 q 0,-6.485596 2.45728,-11.561279 2.49756,-5.115967 6.92871,-7.976074 4.47143,-2.900391 9.66797,-2.900391 8.49975,0 13.21289,5.599365 4.71313,5.599365 4.71313,16.032715 l 0,3.101807 -29.52759,0 q 0.16114,6.445312 3.74634,10.433349 3.62549,3.947754 9.18457,3.947754 3.94776,0 6.68701,-1.611328 2.73926,-1.611328 4.79371,-4.270019 l 4.552,3.544921 q -5.47852,8.419192 -16.43555,8.419192 z m -0.92651,-39.074709 q -4.51172,0 -7.57325,3.303222 -3.06152,3.26294 -3.78662,9.184571 l 21.8335,0 0,-0.563965 q -0.32227,-5.679932 -3.06152,-8.781738 -2.73926,-3.14209 -7.41211,-3.14209 z"
         style="font-style:normal;font-variant:normal;font-weight:normal;font-stretch:normal;font-size:82.5px;font-family:Roboto;-inkscape-font-specification:Roboto;letter-spacing:1px;fill:#ffffff"
         id="path3481" />
      <path
         d="m 647.57399,67.56617 q -1.69189,-0.281983 -3.66577,-0.281983 -7.33154,0 -9.94995,6.243897 l 0,30.937496 -7.4524,0 0,-43.586422 7.25098,0 0.12085,5.0354 q 3.66577,-5.841064 10.39307,-5.841064 2.17529,0 3.30322,0.563965 l 0,6.928711 z"
         style="font-style:normal;font-variant:normal;font-weight:normal;font-stretch:normal;font-size:82.5px;font-family:Roboto;-inkscape-font-specification:Roboto;letter-spacing:1px;fill:#ffffff"
         id="path3483" />
    </g>
  </g>
</svg>
